<svg width="91" height="91" viewBox="0 0 91 91" fill="none" xmlns="http://www.w3.org/2000/svg">
<path fill-rule="evenodd" clip-rule="evenodd" d="M91 45.5C91 70.629 70.629 91 45.5 91C20.371 91 0 70.629 0 45.5C0 20.371 20.371 0 45.5 0C70.629 0 91 20.371 91 45.5ZM22.9475 50.9572C16.7173 44.7268 16.7174 34.6256 22.9477 28.3953C29.1779 22.1651 39.2792 22.165 45.5095 28.3952C51.7398 22.165 61.8411 22.165 68.0713 28.3953C74.3017 34.6256 74.3017 44.727 68.0713 50.9573L56.8494 62.1792C56.8299 62.1989 56.8103 62.2186 56.7906 62.2383C56.771 62.2579 56.7513 62.2775 56.7315 62.2971L45.5094 73.5192L22.9474 50.9573L22.9475 50.9572Z" fill="#D9D9D9"/>
</svg>
