<svg width="96" height="134" viewBox="0 0 96 134" fill="none" xmlns="http://www.w3.org/2000/svg">
<path d="M41.5 127C41.5 130.59 44.4101 133.5 48 133.5C51.5899 133.5 54.5 130.59 54.5 127H41.5ZM52.5962 2.40381C50.0578 -0.134605 45.9422 -0.134605 43.4038 2.40381L2.03806 43.7696C-0.500347 46.308 -0.500347 50.4235 2.03806 52.9619C4.57647 55.5004 8.69204 55.5004 11.2304 52.9619L48 16.1924L84.7696 52.9619C87.308 55.5004 91.4235 55.5004 93.9619 52.9619C96.5003 50.4235 96.5003 46.308 93.9619 43.7696L52.5962 2.40381ZM54.5 127L54.5 7H41.5L41.5 127H54.5Z" fill="white"/>
</svg>
